<svg xmlns="http://www.w3.org/2000/svg" enable-background="new 0 0 64 64" viewBox="0 0 64 64" id="best-performance"><path fill="#32397c" d="M43.9,35.16C56.11,30.31,64,18.8,64,5.79c0-0.54-0.43-0.97-0.97-0.97H50.31V4.18c0-0.54-0.44-0.97-0.97-0.97
		H14.66c-0.53,0-0.96,0.43-0.96,0.97v0.64H0.97C0.43,4.82,0,5.25,0,5.79C0,18.8,7.88,30.3,20.09,35.15
		c1.88,1.61,4.08,2.86,6.51,3.61v8.8h-6.98c-0.54,0-0.97,0.43-0.97,0.97v4.68h-2.93c-0.42,0-0.79,0.27-0.92,0.67l-1.83,5.64
		c-0.09,0.3-0.04,0.62,0.14,0.87c0.18,0.25,0.47,0.4,0.78,0.4h37.27c0.31,0,0.6-0.15,0.78-0.4s0.24-0.57,0.14-0.87l-1.83-5.64
		c-0.13-0.4-0.5-0.67-0.92-0.67H46.4v-4.68c0-0.54-0.43-0.97-0.97-0.97h-8.02v-8.8C39.83,38.01,42.02,36.77,43.9,35.16z
		 M50.31,21.27v-9.84h6.43c-1.04,4.42-3.32,8.48-6.53,11.75C50.27,22.55,50.31,21.92,50.31,21.27z M49.56,26.42
		c4.88-4.05,8.19-9.64,9.33-15.78c0.05-0.28-0.02-0.58-0.21-0.8c-0.18-0.22-0.45-0.35-0.74-0.35h-7.63V6.76h11.74
		c-0.34,10.31-5.96,19.51-14.81,24.63C48.25,29.87,49.03,28.2,49.56,26.42z M13.8,23.18c-3.22-3.27-5.49-7.32-6.53-11.75h6.43v9.84
		C13.7,21.92,13.73,22.55,13.8,23.18z M1.95,6.76H13.7v2.73H6.07c-0.29,0-0.56,0.13-0.74,0.35c-0.19,0.22-0.26,0.52-0.21,0.8
		c1.14,6.15,4.45,11.73,9.32,15.78c0.53,1.78,1.31,3.45,2.31,4.96C7.91,26.27,2.29,17.07,1.95,6.76z M48.62,55.14l1.2,3.71H15.23
		l1.2-3.71H48.62z M44.46,49.5v3.71H20.59V49.5H44.46z M28.54,47.56v-8.32c1.12,0.22,2.27,0.34,3.46,0.34
		c1.19,0,2.35-0.12,3.47-0.34v8.32H28.54z M32,37.64c-9.02,0-16.37-7.34-16.37-16.37V5.15h32.74v16.12
		C48.37,30.3,41.02,37.64,32,37.64z"></path><path fill="#ecc25d" d="M35.47,39.24v8.32h-6.93v-8.32c1.12,0.22,2.27,0.34,3.46,0.34C33.19,39.58,34.35,39.46,35.47,39.24z"></path><rect width="23.87" height="3.71" x="20.59" y="49.5" fill="#ffdc7c"></rect><polygon fill="#ecc25d" points="49.82 58.85 15.23 58.85 16.43 55.14 48.62 55.14"></polygon><path fill="#ecc25d" d="M16.75 31.38C7.91 26.27 2.29 17.07 1.95 6.76H13.7v2.73H6.07c-.29 0-.56.13-.74.35-.19.22-.26.52-.21.8 1.14 6.15 4.45 11.73 9.32 15.78C14.97 28.2 15.75 29.87 16.75 31.38zM62.05 6.76c-.34 10.31-5.96 19.51-14.81 24.63 1.01-1.52 1.79-3.19 2.32-4.97 4.88-4.05 8.19-9.64 9.33-15.78.05-.28-.02-.58-.21-.8-.18-.22-.45-.35-.74-.35h-7.63V6.76H62.05z"></path><path fill="#ffdc7c" d="M15.63,5.15v16.12c0,9.03,7.35,16.37,16.37,16.37s16.37-7.34,16.37-16.37V5.15H15.63z M43.5,17.5L37.32,22
		l2.36,7.27c0.13,0.39-0.02,0.83-0.36,1.08s-0.79,0.25-1.14,0L32,25.86l-6.18,4.49c-0.17,0.12-0.37,0.18-0.57,0.18
		s-0.4-0.06-0.57-0.18c-0.34-0.25-0.49-0.69-0.36-1.08L26.69,22l-6.19-4.5c-0.34-0.25-0.48-0.68-0.35-1.08
		c0.13-0.4,0.5-0.67,0.92-0.67h7.65l2.36-7.27c0.13-0.4,0.5-0.67,0.92-0.67c0.42,0,0.79,0.27,0.92,0.67l2.37,7.27h7.64
		c0.42,0,0.79,0.27,0.92,0.67C43.98,16.82,43.84,17.25,43.5,17.5z"></path><path fill="#32397c" d="M43.85,16.42c-0.13-0.4-0.5-0.67-0.92-0.67h-7.64l-2.37-7.27c-0.13-0.4-0.5-0.67-0.92-0.67
		c-0.42,0-0.79,0.27-0.92,0.67l-2.36,7.27h-7.65c-0.42,0-0.79,0.27-0.92,0.67c-0.13,0.4,0.01,0.83,0.35,1.08l6.19,4.5l-2.37,7.27
		c-0.13,0.39,0.02,0.83,0.36,1.08c0.17,0.12,0.37,0.18,0.57,0.18s0.4-0.06,0.57-0.18L32,25.86l6.18,4.49c0.35,0.25,0.8,0.25,1.14,0
		s0.49-0.69,0.36-1.08L37.32,22l6.18-4.5C43.84,17.25,43.98,16.82,43.85,16.42z M35.61,20.84c-0.34,0.25-0.49,0.69-0.36,1.08
		l1.66,5.11l-4.34-3.16c-0.17-0.12-0.37-0.18-0.57-0.18s-0.4,0.06-0.57,0.18l-4.34,3.16l1.66-5.11c0.13-0.39-0.01-0.83-0.35-1.08
		l-4.35-3.15h5.37c0.42,0,0.79-0.27,0.92-0.67L32,11.91l1.66,5.11c0.13,0.4,0.5,0.67,0.92,0.67h5.37L35.61,20.84z"></path><path fill="#f49292" d="M35.25,21.92l1.66,5.11l-4.34-3.16c-0.17-0.12-0.37-0.18-0.57-0.18s-0.4,0.06-0.57,0.18l-4.34,3.16l1.66-5.11
		c0.13-0.39-0.01-0.83-0.35-1.08l-4.35-3.15h5.37c0.42,0,0.79-0.27,0.92-0.67L32,11.91l1.66,5.11c0.13,0.4,0.5,0.67,0.92,0.67h5.37
		l-4.34,3.15C35.27,21.09,35.12,21.53,35.25,21.92z"></path></svg>